<mxfile host="app.diagrams.net" modified="2023-08-13T08:20:05.835Z" agent="Mozilla/5.0 (Macintosh; Intel Mac OS X 10_15_7) AppleWebKit/537.36 (KHTML, like Gecko) Chrome/114.0.0.0 Safari/537.36" version="21.6.8" etag="mTDQsS-KAte3C52Xh3_V" type="github">
  <diagram name="第 1 页" id="Bcnq2mTBAVDWF01GQGww">
    <mxGraphModel>
      <root>
        <mxCell id="0" />
        <mxCell id="1" parent="0" />
      </root>
    </mxGraphModel>
  </diagram>
</mxfile>
